:SAMPLES-PER-SECOND 30
:FRAME-RANGE 1-2045
:FULLY-SPECIFIED
:DEGREES
640
root  21.4456 39.1926 70.0784 -170.499 -32.1786 176.46
RightUpLeg  -27.6061 -35.8743 10.4019
RightLeg  22.1182 3.45739 1.324
RightFoot  -4.44933 0.00646025 -0.608687
RightToes  5.82063e-011 0 -3.6325e-017
Spine  19.7459 1.18815 1.23825
Spine1  -1.47718 2.02686 -5.40687
HEad  -11.9624 -22.672 9.49049
LeftShoulder1  1.16683 -0.935903 -19.7934
LeftArm  -1.29126 -19.2346 -30.3501
LeftForeArm  -12.4604 -59.3206 -20.5117
LeftHand  -0.573186 8.46787 -18.5542
RightShoulder  8.52283 14.8335 40.3221
RightArm  -3.92758 4.46429 14.3318
RightForeArm  -21.293 63.872 26.0631
RightHand  0.554473 -1.86522 18.7202
LeftUpLeg  -25.9367 12.1163 1.27645
LeftLeg  15.427 -0.563223 -0.0411187
LeftFoot  -0.957456 1.6827 -18.322
LeftToes  -3.90176e-010 -2.48536e-010 1.05482e-011
641
root  21.7164 39.0144 69.3372 -171.078 -29.048 177.114
RightUpLeg  -30.9808 -35.2042 10.5007
RightLeg  31.4384 7.00604 4.36511
RightFoot  -2.963 -0.273832 3.46095
RightToes  5.82063e-011 0 -3.6325e-017
Spine  19.9485 1.48958 -0.367459
Spine1  -0.801617 2.38883 -5.61779
HEad  -11.9828 -20.2673 9.62033
LeftShoulder1  1.13348 -0.895293 -19.2399
LeftArm  -2.89507 -18.7279 -28.7203
LeftForeArm  -12.862 -58.9139 -20.1907
LeftHand  -0.513119 8.05588 -18.9594
RightShoulder  9.00537 15.5258 41.1114
RightArm  -3.74594 4.79059 15.0622
RightForeArm  -19.9574 64.507 26.7961
RightHand  0.545098 -1.73907 17.7501
LeftUpLeg  -27.2822 7.42508 2.02079
LeftLeg  10.4611 -1.21657 -2.00948
LeftFoot  -1.21664 1.82745 -20.3596
LeftToes  -3.90176e-010 -2.48536e-010 1.05482e-011
642
root  21.8218 38.2513 68.5648 -172.692 -26.3437 177.485
RightUpLeg  -33.7863 -34.7893 6.53554
RightLeg  45.2384 12.6347 13.0259
RightFoot  -2.15767 -1.76699 21.5766
RightToes  5.82063e-011 0 -3.6325e-017
Spine  20.1325 1.44529 -2.10206
Spine1  -0.0624411 2.45227 -5.58777
HEad  -10.3137 -17.8171 8.68426
LeftShoulder1  1.13639 -0.963825 -18.8855
LeftArm  -2.89778 -17.9591 -27.6047
LeftForeArm  -13.978 -58.827 -20.2042
LeftHand  -0.497495 8.05827 -18.3235
RightShoulder  9.37051 16.0031 41.7756
RightArm  -3.24313 4.67561 15.0046
RightForeArm  -18.634 65.4324 27.9954
RightHand  0.525112 -1.72096 17.032
LeftUpLeg  -29.4675 7.42974 1.54379
LeftLeg  12.4359 -10.0907 -5.02468
LeftFoot  -2.59801 2.2985 -29.2693
LeftToes  -3.90176e-010 -2.48536e-010 1.05482e-011
643
root  21.9962 37.1112 67.7705 -175.252 -24.345 177.071
RightUpLeg  -33.6504 -31.9498 -1.30846
RightLeg  57.7994 17.6153 27.17
RightFoot  -1.17403 -3.47199 37.609
RightToes  5.82063e-011 0 -3.6325e-017
Spine  21.163 1.46789 -5.21259
Spine1  -0.053268 2.32464 -5.50166
HEad  -7.76307 -15.4785 7.23241
LeftShoulder1  1.14259 -1.06451 -18.4284
LeftArm  -1.70849 -17.3841 -28.1185
LeftForeArm  -14.3911 -58.2414 -19.7458
LeftHand  -0.482167 7.92565 -18.6153
RightShoulder  9.2844 15.7692 41.9062
RightArm  -2.75239 4.5892 14.4688
RightForeArm  -18.1736 65.8975 28.6575
RightHand  0.472889 -2.08842 17.201
LeftUpLeg  -32.6064 10.4385 -1.65122
LeftLeg  23.7393 -15.8564 -7.80674
LeftFoot  3.11466 1.48068 -11.7924
LeftToes  -3.90176e-010 -2.48536e-010 1.05482e-011
644
root  22.2822 36.0115 67.0824 -177.422 -23.6031 177.119
RightUpLeg  -34.7049 -27.7044 -8.12555
RightLeg  64.5355 10.9938 23.2445
RightFoot  -3.70291 -2.35426 33.9159
RightToes  5.82063e-011 0 -3.6325e-017
Spine  23.4123 1.99678 -7.02868
Spine1  -1.06793 1.37533 -2.38306
HEad  -7.35927 -13.8532 7.31595
LeftShoulder1  1.17915 -1.1559 -18.7461
LeftArm  -0.625738 -19.3552 -29.7726
LeftForeArm  -14.6936 -56.6832 -18.5516
LeftHand  -0.452073 7.73049 -18.7626
RightShoulder  8.97189 15.1216 41.9121
RightArm  -3.85775 5.51964 13.9509
RightForeArm  -20.0091 64.7449 27.1257
RightHand  0.491871 -2.01236 17.4418
LeftUpLeg  -35.7537 6.00351 0.709866
LeftLeg  35.5029 -10.5185 -7.6005
LeftFoot  -0.602495 0.696736 -7.36909
LeftToes  -3.90176e-010 -2.48536e-010 1.05482e-011
645
root  22.4891 35.368 66.5495 -179.622 -23.4601 178.399
RightUpLeg  -33.8013 -23.5226 -13.4751
RightLeg  63.1226 4.82473 9.73481
RightFoot  -6.42818 -1.12768 24.882
RightToes  5.82063e-011 0 -3.6325e-017
Spine  24.7579 1.55751 -4.58859
Spine1  -0.0680717 1.02285 -2.09042
HEad  -8.64988 -12.7329 7.13617
LeftShoulder1  1.30857 -1.69685 -18.5959
LeftArm  0.711792 -22.3399 -32.8285
LeftForeArm  -15.212 -54.5274 -17.0866
LeftHand  -0.361377 7.25566 -18.2654
RightShoulder  8.84755 15.1316 41.2617
RightArm  -6.60259 5.61666 13.5567
RightForeArm  -21.6934 63.068 25.098
RightHand  0.594603 -1.44235 17.795
LeftUpLeg  -36.9335 6.26773 2.88836
LeftLeg  42.2503 -9.50933 -8.74959
LeftFoot  -3.28869 0.456734 -6.20555
LeftToes  -3.90176e-010 -2.48536e-010 1.05482e-011
646
root  22.6784 34.8077 66.1157 178.514 -21.9018 -178.994
RightUpLeg  -32.1679 -17.6309 -15.8932
RightLeg  55.256 -1.87681 -3.33093
RightFoot  -4.50597 -1.21454 19.6388
RightToes  5.82063e-011 0 -3.6325e-017
Spine  26.3968 0.767981 -0.285967
Spine1  -0.300933 1.0291 -2.3648
HEad  -9.11339 -10.7547 5.8104
LeftShoulder1  1.36145 -1.86097 -18.8297
LeftArm  1.05319 -22.7866 -35.6525
LeftForeArm  -14.6069 -53.8458 -16.6082
LeftHand  -0.288727 6.8586 -17.8392
RightShoulder  8.85894 15.638 40.1239
RightArm  -8.20028 5.76505 12.6311
RightForeArm  -22.2921 62.2985 24.2494
RightHand  0.640307 -1.22101 18.0653
LeftUpLeg  -38.5698 7.61037 6.322
LeftLeg  48.061 -7.96569 -8.97178
LeftFoot  -5.27303 0.31816 -5.40394
LeftToes  -3.90176e-010 -2.48536e-010 1.05482e-011
647
root  23.082 34.1611 65.7089 178.948 -22.4589 -178.932
RightUpLeg  -29.3271 -11.422 -20.2926
RightLeg  43.5261 -0.91436 -1.23371
RightFoot  -6.96565 -0.947639 23.2496
RightToes  5.82063e-011 0 -3.6325e-017
Spine  27.31 0.419136 -0.495629
Spine1  -0.868774 -0.0357782 0.40854
HEad  -10.3335 -9.09271 4.05923
LeftShoulder1  1.41835 -1.99242 -19.2915
LeftArm  1.74009 -22.2714 -37.9438
LeftForeArm  -13.6732 -53.8193 -16.527
LeftHand  -0.2229 6.46245 -17.7451
RightShoulder  8.40049 15.4152 38.3315
RightArm  -9.34438 6.4841 11.8339
RightForeArm  -22.5485 61.9676 23.9006
RightHand  0.661353 -1.19467 18.5207
LeftUpLeg  -40.5672 6.20323 7.58599
LeftLeg  51.4491 -7.0846 -8.99323
LeftFoot  -8.45818 0.192969 -5.65163
LeftToes  -3.90176e-010 -2.48536e-010 1.05482e-011
648
root  23.7362 33.4035 65.2128 -179.465 -23.7988 179.802
RightUpLeg  -30.3072 -7.55474 -23.6989
RightLeg  45.0817 1.86905 1.69495
RightFoot  -13.6879 0.55585 31.009
RightToes  5.82063e-011 0 -3.6325e-017
Spine  28.8203 0.382498 -1.73154
Spine1  -2.3227 -0.677914 1.85834
HEad  -11.5748 -8.76714 3.0595
LeftShoulder1  1.50764 -2.3635 -19.1757
LeftArm  3.29326 -22.557 -40.3936
LeftForeArm  -13.4173 -53.5159 -16.3211
LeftHand  -0.154208 6.04449 -17.6429
RightShoulder  7.64397 14.2903 36.9489
RightArm  -10.3071 6.92678 10.7914
RightForeArm  -22.2902 62.3897 24.352
RightHand  0.679711 -1.19704 19.0314
LeftUpLeg  -43.7622 4.7549 8.00877
LeftLeg  55.0623 -6.75567 -9.801
LeftFoot  -10.4546 0.120156 -7.43505
LeftToes  -3.90176e-010 -2.48536e-010 1.05482e-011
649
root  24.3296 32.9091 65.1874 -178.884 -24.8783 -179.795
RightUpLeg  -34.0415 -10.3672 -21.9932
RightLeg  50.3579 1.5646 1.66678
RightFoot  -14.0316 0.555564 27.2724
RightToes  5.82063e-011 0 -3.6325e-017
Spine  30.6757 -0.663616 0.644808
Spine1  -2.32037 -1.00142 0.887608
HEad  -14.8075 -8.87031 2.65446
LeftShoulder1  1.61264 -2.74831 -19.2836
LeftArm  3.44531 -23.9555 -42.25
LeftForeArm  -12.5731 -53.5369 -16.275
LeftHand  -0.116097 5.82368 -17.1587
RightShoulder  7.45309 14.482 35.461
RightArm  -12.4447 7.19591 9.88194
RightForeArm  -22.0204 62.6251 24.6016
RightHand  0.708364 -1.09446 19.3205
LeftUpLeg  -46.4667 3.66667 9.50848
LeftLeg  56.9109 -6.48117 -10.0892
LeftFoot  -10.5907 0.11762 -8.27332
LeftToes  -3.90176e-010 -2.48536e-010 1.05482e-011
650
root  24.8166 32.8914 65.2062 -177.861 -25.1339 -179.463
RightUpLeg  -36.0557 -11.5542 -20.4388
RightLeg  51.1548 1.42073 1.52381
RightFoot  -13.9493 0.506782 26.0434
RightToes  5.82063e-011 0 -3.6325e-017
Spine  31.36 -1.15271 1.94866
Spine1  -0.718038 -1.39056 1.67172
HEad  -17.1169 -8.28271 2.08066
LeftShoulder1  1.68706 -3.02329 -19.3428
LeftArm  2.19943 -25.1207 -43.7956
LeftForeArm  -12.469 -52.6806 -15.7538
LeftHand  -0.0578365 5.45644 -16.845
RightShoulder  7.81912 15.9025 34.3094
RightArm  -14.8895 8.15657 9.41004
RightForeArm  -22.1355 61.9168 23.8161
RightHand  0.761628 -0.847283 19.5672
LeftUpLeg  -47.7686 3.66758 10.6005
LeftLeg  56.0399 -6.69255 -10.0813
LeftFoot  -9.94503 0.172915 -9.29462
LeftToes  -3.90176e-010 -2.48536e-010 1.05482e-011
